<?xml version="1.0" encoding="UTF-8"?>
<svg id="Layer_1" data-name="Layer 1" xmlns="http://www.w3.org/2000/svg" viewBox="0 0 5000 2999.68">
  <rect width="5000" height="2999.68" style="fill: #2979ff;"/>
  <path d="M2272.09,1723.86h-14.75c-34.94,0-64.46,28.73-64.46,64.47v8.54h-211.98c-34.94,0-64.45,27.18-69.09,60.57h-23.3c-44.27,0-79.98,36.49-79.98,79.99v44.25h-10.87c-12.44,0-23.3,10.09-23.3,23.3v14.77h-13.98v-7.01c0-5.43-4.67-10.09-10.88-10.09h-10.09c-6.22,0-10.89,4.66-10.89,10.09v7.01h-17.07v-7.01c0-5.43-4.66-10.09-10.09-10.09h-10.88c-6.21,0-10.86,4.66-10.86,10.09v12.44H0v24.05H1679.62v11.66c0,6.21,4.65,10.86,10.86,10.86h10.88c5.43,0,10.09-4.66,10.09-10.86v-6.21h17.07v6.21c0,6.21,4.67,10.86,10.89,10.86h10.09c6.2,0,10.88-4.66,10.88-10.86v-6.21h13.98v14.74c0,12.44,10.86,23.3,23.3,23.3h10.87v44.25c0,43.5,35.71,79.21,79.98,79.21h23.3c4.65,34.16,34.16,60.57,69.09,60.57h211.98v9.34c0,34.94,29.52,63.67,64.46,63.67h14.75c34.94,0,63.67-28.73,63.67-63.67v-497.75c0-35.74-28.73-64.47-63.67-64.47h0Z" style="fill: #fff; fill-rule: evenodd;"/>
  <path d="M2727.91,2349.75h14.73c34.97,0,63.7-28.73,63.7-63.67v-9.34h212.76c156.07,0,171.61-102.49,171.61-139.78v-44.25h10.86c13.22,0,24.08-10.86,24.08-23.3v-14.74h13.97v6.21c0,6.21,4.65,10.86,10.11,10.86h10.86c6.21,0,10.86-4.66,10.86-10.86v-6.21h17.09v6.21c0,6.21,4.66,10.86,10.09,10.86h10.89c5.43,0,10.86-4.66,10.86-10.86v-11.66h1679.62v-24.05h-1679.62v-12.44c0-5.43-5.43-10.09-10.86-10.09h-10.89c-5.43,0-10.09,4.66-10.09,10.09v7.01h-17.09v-7.01c0-5.43-4.65-10.09-10.86-10.09h-10.86c-5.46,0-10.11,4.66-10.11,10.09v7.01h-13.97v-14.77c0-13.21-10.86-23.3-24.08-23.3h-10.86v-44.25c0-37.29-.77-140.55-171.61-140.55h-212.76v-8.54c0-35.74-28.73-64.47-63.7-64.47h-14.73c-34.94,0-63.67,28.73-63.67,64.47v497.75c0,34.94,28.73,63.67,63.67,63.67h0Zm-234.51-232.18h149.09v72.98h-149.09c-48.93,0-48.93-72.98,0-72.98h0Zm0-233.73h149.09v72.98h-149.09c-48.93,0-48.93-72.98,0-72.98h0Z" style="fill: #202020; fill-rule: evenodd;"/>
  <path d="M2156.38,1609.71c4.66,4.68,4.66,12.44,0,17.09-4.65,3.88-12.41,3.88-17.08,0l-49.7-50.48c-4.65-4.66-4.65-12.41,0-17.07,4.66-4.68,12.41-4.68,16.31,0l50.46,50.45Zm355.64-137.44c0,6.22-5.43,11.65-12.41,11.65-6.2,0-11.65-5.43-11.65-11.65v-117.25c0-6.21,5.45-11.65,11.65-11.65,6.98,0,12.41,5.45,12.41,11.65v117.25Zm128.14,20.18c-1.55,6.22-7.76,10.11-14.77,8.56-6.2-2.34-10.09-8.56-7.76-14.77l17.87-68.32c1.55-6.22,8.54-10.1,14.74-8.55,6.21,1.55,10.09,7.77,8.54,14.75l-18.62,68.32Zm118.8,52.03c-3.1,6.21-10.09,7.76-16.32,4.66-5.43-3.11-6.98-10.09-3.88-16.29l58.24-100.96c3.1-6.21,10.88-7.76,16.31-4.66,5.43,3.11,7.76,10.88,4.66,16.31l-59.02,100.95Zm-497.74-11.64c3.1,6.21,1.55,13.19-3.89,16.29-6.21,3.1-13.2,1.55-16.3-4.66l-59.02-100.95c-3.1-5.43-.78-13.2,4.66-16.31,5.43-3.1,13.2-1.55,16.31,4.66l58.24,100.96Zm121.13-46.6c1.55,6.21-1.55,12.43-8.55,14.77-6.21,1.55-12.43-2.34-13.98-8.56l-18.63-68.32c-1.55-6.98,2.33-13.2,8.55-14.75,6.2-1.55,13.19,2.33,14.73,8.55l17.88,68.32Zm478.35,140.55c-4.69,3.88-12.45,3.88-17.09,0-4.66-4.66-4.66-12.41,0-17.09l49.67-50.45c4.69-4.68,12.45-4.68,17.09,0,4.66,4.65,4.66,12.41,0,17.07l-49.67,50.48Z" style="fill: #202020;"/>
  <path d="M2843.62,2464.67c-4.66-4.65-4.66-12.44,0-17.09,4.65-4.66,12.41-4.66,17.09,0l49.67,50.48c4.66,4.66,4.66,11.64,0,16.32-4.65,4.65-12.41,4.65-17.09,0l-49.67-49.71Zm-355.66,137.45c0-7.01,5.45-12.44,11.65-12.44,6.98,0,12.41,5.43,12.41,12.44v116.48c0,6.98-5.43,12.41-12.41,12.41-6.2,0-11.65-5.43-11.65-12.41v-116.48Zm-128.12-20.2c1.55-6.21,7.77-10.09,13.98-8.54,6.99,1.55,10.09,8.54,8.55,14.74l-17.88,68.32c-2.32,6.23-8.53,10.11-14.73,8.56-6.22-1.55-10.1-8.56-8.55-14.77l18.63-68.32Zm-118.8-52.81c3.1-5.43,10.09-7.76,16.3-3.88,5.45,3.11,6.99,10.09,3.89,15.52l-58.24,101.74c-3.12,5.43-10.88,7.76-16.31,4.66-5.44-3.88-7.76-10.86-4.66-16.29l59.02-101.74Zm497.74,11.64c-3.1-5.43-1.55-12.41,3.88-15.52,6.23-3.88,13.22-1.55,16.32,3.88l59.02,101.74c3.1,5.43,.77,12.41-4.66,16.29-5.43,3.1-13.21,.77-16.31-4.66l-58.24-101.74Zm-121.13,47.38c-2.33-6.21,1.55-13.19,7.76-14.74,7.01-1.55,13.22,2.33,14.77,8.54l18.62,68.32c1.55,6.21-2.33,13.21-8.54,14.77-6.2,1.55-13.19-2.32-14.74-8.56l-17.87-68.32Zm-478.34-140.55c4.67-4.66,12.43-4.66,17.08,0,4.66,4.66,4.66,12.44,0,17.09l-50.46,49.71c-4.67,4.65-11.66,4.65-16.31,0-4.65-4.68-4.65-11.66,0-16.32l49.7-50.48Z" style="fill: #fff;"/>
  <path d="M1453.98,531.91l-224,234.5v101.74h225.6v74.54h92.79v-74.54h48.01v-79.21h-48.01v-257.03h-94.4Zm-135.2,257.03l136.8-145.98v145.98h-136.8Zm426.42-82.32c0-34.16,8.79-60.57,26.38-78.42,17.6-17.86,40.81-26.41,69.61-26.41s50.39,8.55,67.19,27.18c17.62,17.86,26.41,43.49,26.41,77.65v59.02c0,34.95-8.79,61.36-26.41,79.99-17.59,17.86-39.99,27.18-68.78,27.18s-51.21-9.32-68.01-27.18c-17.59-18.63-26.38-45.04-26.38-79.99v-59.02Zm-93.62,59.02c0,41.16,8.81,76.88,27.2,105.62,18.39,29.5,41.6,50.46,70.4,62.89,28,13.2,59.2,19.42,93.6,19.42,52,0,95.99-16.32,131.19-48.93,36.01-32.61,53.6-79.21,53.6-139v-59.79c0-59.79-17.59-106.38-52.81-138.99-35.19-32.62-79.18-48.14-133.59-48.14s-100.01,15.52-136.01,48.14c-36,31.84-53.6,78.43-53.6,138.99v59.79Zm653.61-233.73l-224.01,233.73v102.51h224.8v74.54h92.8v-74.54h48.79v-79.21h-48.79v-257.03h-93.6Zm-135.2,257.03l136-145.98v145.98h-136Z" style="fill: #202020; fill-rule: evenodd;"/>
  <path d="M1445.62,410.31h-128.6v-48.14h117.1v-47.38h-117.1v-46.59h124.01v-48.91h-175.3v240.71h179.89v-49.69Zm251.82,45.04l-65.08-79.2c60.49-16.93,70.64-92.08,31.38-132.78-29.46-38.73-134.14-19.91-176.8-24.08v240.71h52.82v-79.2h38.29l60.43,79.2h58.96v-4.65Zm-97.98-190.25c30.6-1.26,46.02,38.11,26.79,59.79-6.12,7-14.56,10.87-26.03,10.87,0,0-60.46,0-60.46,0v-70.66h59.7Zm342.89,190.25l-65.05-79.2c60.48-17,72.2-92.44,31.38-132.78-29.44-38.65-133.43-19.95-176.04-24.08v240.71h52.82v-79.2h38.26l60.46,79.2h58.17v-4.65Zm-97.96-190.25c30.24-1.18,47.19,38.36,26.79,59.79-6.14,7-14.55,10.88-26.02,10.88,0,0-59.7,0-59.7,0v-70.66h58.93Zm373.51,74.54c6.88-167.88-262.39-167.94-255.64,0-6.25,167.55,262.05,167.47,255.64,0h0Zm-51.29,0c.77,103.13-153.44,103.2-152.3,0-1.05-103.45,153-103.35,152.3,0h0Zm300.79,115.7l-65.05-79.2c60.26-17.1,71.79-92.23,31.38-132.78-29.46-38.73-134.14-19.91-176.8-24.08v240.71h52.82v-79.2h38.26l60.49,79.2h58.91v-4.65Zm-97.96-190.25c30.59-1.27,45.98,38.11,26.79,59.79-6.12,7-14.53,10.87-26.03,10.87h-60.46v-70.66h59.7Z" style="fill: #fff; fill-rule: evenodd;"/>
  <path d="M2541.56,813.79h-26.44v139.78h31.09v-43.5l-.8-45.81,69.12,89.31h27.18v-139.78h-31.84v47.36l2.33,43.49-70.65-90.85Zm274.88,69.88c0-22.51-6.98-40.37-20.98-53.57-13.97-13.2-32.61-19.41-55.13-19.41s-40.38,6.21-54.36,19.41c-13.97,13.2-20.95,31.06-20.95,53.57s6.98,40.4,20.95,53.59c13.98,13.2,31.83,20.2,54.36,20.2s41.16-6.99,55.13-20.2c13.99-13.19,20.98-31.06,20.98-53.59h0Zm-31.06,0c0,13.21-3.88,24.08-12.44,32.62-7.76,8.55-18.62,12.43-32.61,12.43-13.2,0-24.08-3.88-31.84-12.43-8.54-8.55-13.19-19.41-13.19-32.62s4.65-23.29,13.19-32.61c7.76-8.54,18.64-12.41,31.84-12.41s24.07,3.88,32.61,12.41c8.55,8.55,12.44,19.42,12.44,32.61h0Zm82.31,69.9h31.06v-111.82h42.7v-27.96h-116.48v27.96h42.72v111.82Zm165.38,0v-49.7h66.8v-27.96h-66.8v-33.39h71.45v-28.73h-102.52v139.78h31.06Zm237.63-69.9c0-22.51-7.01-40.37-20.97-53.57-13.99-13.2-31.84-19.41-54.36-19.41s-41.15,6.21-55.14,19.41c-13.98,13.2-20.97,31.06-20.97,53.57s6.98,40.4,20.97,53.59c13.99,13.2,31.84,20.2,55.14,20.2s40.37-6.99,54.36-20.2c13.96-13.19,20.97-31.06,20.97-53.59h0Zm-30.28,0c0,13.21-4.68,24.08-12.44,32.62-8.53,8.55-19.4,12.43-32.61,12.43s-24.08-3.88-32.61-12.43c-8.54-8.55-12.45-19.41-12.45-32.62s3.91-23.29,12.45-32.61c8.53-8.54,19.39-12.41,32.61-12.41s24.08,3.88,32.61,12.41c7.76,8.55,12.44,19.42,12.44,32.61h0Zm148.31-69.88v78.42c0,23.3-9.34,35.73-28.73,37.28-11.66,0-20.98-2.33-27.18-9.32-6.21-6.21-10.12-15.53-10.12-27.96v-78.42h-31.05v78.42c0,21.75,6.98,38.05,19.42,48.92,13.19,11.65,28.73,17.09,48.12,16.32,19.42-.77,34.19-6.99,44.27-17.87,10.89-10.86,16.32-27.18,16.32-47.37v-78.42h-31.06Zm86.95,0h-27.16v139.78h31.84v-43.5l-.77-45.81,69.1,89.31h27.18v-139.78h-31.84v47.36l2.33,43.49-70.68-90.85Zm131.24,0v139.78h57.47c11.66,0,22.52-1.56,31.83-5.44,8.56-3.88,16.32-9.32,21.75-16.3,5.43-6.98,9.31-13.98,11.64-22.53,3.1-8.54,4.66-17.08,4.66-26.4,0-12.41-2.3-24.06-6.98-34.16-5.43-10.09-12.41-18.63-23.3-24.85-10.86-6.98-24.05-10.09-39.59-10.09h-57.47Zm31.06,27.96h26.41c13.21,0,23.3,3.88,29.5,11.64,6.21,7.77,9.34,17.87,9.34,28.73,0,5.45-.8,10.88-1.55,15.54-1.58,4.66-3.91,9.31-6.23,13.19-3.1,4.67-6.98,7.77-12.41,10.1-5.43,3.12-11.66,3.89-18.64,3.89h-26.41v-83.09Z" style="fill: #202020; fill-rule: evenodd;"/>
  <text transform="translate(2615.87 713.63) scale(1.33 1)" style="fill: #fff; font-family: SegoeUIVariable-BoldSmall, &apos;Segoe UI Variable&apos;; font-size: 300px; font-variation-settings: &apos;wght&apos; 700, &apos;opsz&apos; 8; font-weight: 700;"><tspan x="0" y="0">PAGE</tspan></text>
</svg>