<?xml version="1.0" encoding="utf-8"?>
<!-- Generator: Adobe Illustrator 27.5.0, SVG Export Plug-In . SVG Version: 6.00 Build 0)  -->
<svg version="1.1" id="Layer_1" xmlns="http://www.w3.org/2000/svg" xmlns:xlink="http://www.w3.org/1999/xlink" x="0px" y="0px"
	 viewBox="0 0 3000 3000" style="enable-background:new 0 0 3000 3000;" xml:space="preserve">
<g>
	<rect style="opacity:0.26;fill:#29A9E1;" width="3000" height="3000"/>
	<rect y="1791.72" style="opacity:0.42;fill:#29A9E1;" width="3000" height="1208.28"/>
</g>
<g style="opacity:0.57;">
	<g>
		<polygon style="opacity:0.26;fill:#29A9E1;" points="2942.61,1300.628 2731.863,982.284 2518.009,1296.574 2631.236,1297.655 
			2630.948,1790.589 2844.857,1791.57 2845.559,1299.701 		"/>
		<polygon style="opacity:0.26;fill:#29A9E1;" points="2000.594,1170.727 1791.173,852.383 1575.993,1166.673 1689.22,1167.754 
			1687.51,1792.552 1903.032,1792.271 1903.542,1169.8 		"/>
		<polygon style="opacity:0.26;fill:#29A9E1;" points="2505.554,845.603 2294.806,527.258 2080.953,841.549 2194.18,842.63 
			2191.356,1792.026 2409.044,1791.687 2408.502,844.676 		"/>
	</g>
	<g>
		<polygon style="opacity:0.26;fill:#29A9E1;" points="1412.916,1300.628 1202.168,982.284 988.315,1296.574 1101.542,1297.655 
			1101.254,1790.589 1315.163,1791.57 1315.865,1299.701 		"/>
		<polygon style="opacity:0.26;fill:#29A9E1;" points="470.9,1170.727 261.479,852.383 46.299,1166.673 159.526,1167.754 
			157.816,1792.552 373.338,1792.271 373.848,1169.8 		"/>
		<polygon style="opacity:0.26;fill:#29A9E1;" points="975.86,845.603 765.112,527.258 551.259,841.549 664.486,842.63 
			661.661,1792.026 879.35,1791.687 878.808,844.676 		"/>
	</g>
</g>
<g>
	<path style="fill:#FFFFFF;" d="M455.503,361h-23.721v-23.721c0-2.965-2.426-5.391-5.391-5.391c-2.965,0-5.391,2.426-5.391,5.391
		V361h-23.721c-2.965,0-5.391,2.426-5.391,5.391c0,2.965,2.426,5.391,5.391,5.391H421v23.721c0,2.965,2.426,5.391,5.391,5.391
		c2.965,0,5.391-2.426,5.391-5.391v-23.721h23.721c2.965,0,5.391-2.426,5.391-5.391C460.894,363.426,458.468,361,455.503,361z"/>
	<path style="fill:#FFFFFF;" d="M1023.503,232.721h-23.721V209c0-2.965-2.426-5.391-5.391-5.391c-2.965,0-5.391,2.426-5.391,5.391
		v23.721h-23.721c-2.965,0-5.391,2.426-5.391,5.391s2.426,5.391,5.391,5.391H989v23.721c0,2.965,2.426,5.391,5.391,5.391
		c2.965,0,5.391-2.426,5.391-5.391v-23.721h23.721c2.965,0,5.391-2.426,5.391-5.391S1026.468,232.721,1023.503,232.721z"/>
	<path style="fill:#FFFFFF;" d="M1514.834,246.834h-17.79v-17.79c0-2.224-1.82-4.043-4.043-4.043s-4.043,1.82-4.043,4.043v17.79
		h-17.79c-2.224,0-4.043,1.82-4.043,4.043s1.819,4.043,4.043,4.043h17.79v17.79c0,2.224,1.82,4.043,4.043,4.043
		s4.043-1.82,4.043-4.043v-17.79h17.79c2.224,0,4.043-1.82,4.043-4.043S1517.058,246.834,1514.834,246.834z"/>
	<path style="fill:#FFFFFF;" d="M1360.668,609h-17.791v-17.791c0-2.224-1.819-4.043-4.043-4.043c-2.224,0-4.043,1.82-4.043,4.043
		V609H1317c-2.224,0-4.043,1.82-4.043,4.043c0,2.224,1.82,4.043,4.043,4.043h17.791v17.79c0,2.224,1.819,4.043,4.043,4.043
		c2.224,0,4.043-1.82,4.043-4.043v-17.79h17.791c2.224,0,4.043-1.82,4.043-4.043C1364.711,610.82,1362.891,609,1360.668,609z"/>
	<path style="fill:#FFFFFF;" d="M2344.667,240.913h-17.79v-17.79c0-2.224-1.82-4.043-4.043-4.043c-2.224,0-4.043,1.82-4.043,4.043
		v17.79H2301c-2.224,0-4.043,1.82-4.043,4.043S2298.776,249,2301,249h17.791v17.79c0,2.224,1.82,4.043,4.043,4.043
		c2.224,0,4.043-1.819,4.043-4.043V249h17.79c2.224,0,4.043-1.819,4.043-4.043S2346.891,240.913,2344.667,240.913z"/>
	<path style="fill:#FFFFFF;" d="M1912.668,608.913h-17.791v-17.79c0-2.224-1.819-4.043-4.043-4.043c-2.224,0-4.043,1.82-4.043,4.043
		v17.79H1869c-2.224,0-4.043,1.82-4.043,4.043c0,2.224,1.82,4.043,4.043,4.043h17.791v17.791c0,2.224,1.819,4.043,4.043,4.043
		c2.224,0,4.043-1.82,4.043-4.043V617h17.791c2.224,0,4.043-1.82,4.043-4.043C1916.711,610.733,1914.891,608.913,1912.668,608.913z"
		/>
	<path style="fill:#FFFFFF;" d="M294.877,720.913h-17.79v-17.79c0-2.224-1.819-4.043-4.043-4.043c-2.224,0-4.043,1.82-4.043,4.043
		v17.79h-17.791c-2.224,0-4.043,1.82-4.043,4.043c0,2.224,1.82,4.043,4.043,4.043H269v17.791c0,2.224,1.819,4.043,4.043,4.043
		c2.224,0,4.043-1.82,4.043-4.043V729h17.79c2.224,0,4.043-1.82,4.043-4.043C298.92,722.733,297.101,720.913,294.877,720.913z"/>
	<path style="fill:#FFFFFF;" d="M143.309,365.588h-17.79v-17.79c0-2.224-1.82-4.043-4.043-4.043c-2.224,0-4.043,1.82-4.043,4.043
		v17.79h-17.79c-2.224,0-4.043,1.82-4.043,4.043c0,2.224,1.819,4.043,4.043,4.043h17.79v17.79c0,2.224,1.819,4.043,4.043,4.043
		c2.224,0,4.043-1.819,4.043-4.043v-17.79h17.79c2.224,0,4.043-1.819,4.043-4.043C147.353,367.407,145.533,365.588,143.309,365.588z
		"/>
	<path style="fill:#FFFFFF;" d="M2910.877,486.79h-17.791V469c0-2.224-1.82-4.043-4.043-4.043c-2.224,0-4.043,1.82-4.043,4.043
		v17.79h-17.791c-2.224,0-4.043,1.819-4.043,4.043c0,2.224,1.819,4.043,4.043,4.043H2885v17.791c0,2.224,1.82,4.043,4.043,4.043
		c2.224,0,4.043-1.819,4.043-4.043v-17.791h17.791c2.224,0,4.043-1.819,4.043-4.043C2914.92,488.61,2913.101,486.79,2910.877,486.79
		z"/>
	<path style="fill:#FFFFFF;" d="M2670.877,680.913h-17.791v-17.79c0-2.224-1.82-4.043-4.043-4.043c-2.224,0-4.043,1.82-4.043,4.043
		v17.79h-17.791c-2.224,0-4.043,1.82-4.043,4.043c0,2.224,1.819,4.043,4.043,4.043H2645v17.791c0,2.224,1.82,4.043,4.043,4.043
		c2.224,0,4.043-1.82,4.043-4.043V689h17.791c2.224,0,4.043-1.82,4.043-4.043C2674.92,682.733,2673.101,680.913,2670.877,680.913z"
		/>
</g>
<g>
	<defs>
		<filter id="Adobe_OpacityMaskFilter" filterUnits="userSpaceOnUse" x="0" y="2136" width="2556.01" height="864">
			<feFlood  style="flood-color:white;flood-opacity:1" result="back"/>
			<feBlend  in="SourceGraphic" in2="back" mode="normal"/>
		</filter>
	</defs>
	<mask maskUnits="userSpaceOnUse" x="0" y="2136" width="2556.01" height="864" id="SVGID_1_">
		<g style="filter:url(#Adobe_OpacityMaskFilter);">
			<defs>
				
					<filter id="Adobe_OpacityMaskFilter_00000127042139152476497470000004925970849054871217_" filterUnits="userSpaceOnUse" x="0" y="2136" width="2556.01" height="864">
					<feFlood  style="flood-color:white;flood-opacity:1" result="back"/>
					<feBlend  in="SourceGraphic" in2="back" mode="normal"/>
				</filter>
			</defs>
			<mask maskUnits="userSpaceOnUse" x="0" y="2136" width="2556.01" height="864" id="SVGID_1_">
				<g style="filter:url(#Adobe_OpacityMaskFilter_00000127042139152476497470000004925970849054871217_);">
				</g>
			</mask>
			
				<linearGradient id="SVGID_00000164501216847838400630000007824885311720260004_" gradientUnits="userSpaceOnUse" x1="1315.7407" y1="2229.6936" x2="1221.6573" y2="3013.7188">
				<stop  offset="0" style="stop-color:#FFFFFF"/>
				<stop  offset="1" style="stop-color:#000000"/>
			</linearGradient>
			<polygon style="mask:url(#SVGID_1_);fill:url(#SVGID_00000164501216847838400630000007824885311720260004_);" points="
				431.161,2387.185 0.231,2938.382 0,2997.895 2292.01,3000 2556.01,2148 1236.01,2136 			"/>
		</g>
	</mask>
	
		<linearGradient id="SVGID_00000085210984275040262500000000450704210782238873_" gradientUnits="userSpaceOnUse" x1="1315.7407" y1="2229.6936" x2="1221.6573" y2="3013.7188">
		<stop  offset="0" style="stop-color:#0D72B9"/>
		<stop  offset="1" style="stop-color:#26A9E0"/>
	</linearGradient>
	<polygon style="fill:url(#SVGID_00000085210984275040262500000000450704210782238873_);" points="431.161,2387.185 0.231,2938.382 
		0,2997.895 2292.01,3000 2556.01,2148 1236.01,2136 	"/>
	<g>
		<g>
			
				<linearGradient id="SVGID_00000121989479156156999740000013119012533455262108_" gradientUnits="userSpaceOnUse" x1="684.0442" y1="2336.3376" x2="684.0442" y2="1120.5868">
				<stop  offset="0" style="stop-color:#2E368E"/>
				<stop  offset="1" style="stop-color:#0D72B9"/>
			</linearGradient>
			<polygon style="fill:url(#SVGID_00000121989479156156999740000013119012533455262108_);" points="936.927,1312.327 
				594.235,1312.327 431.161,1414.767 431.161,2387.185 814.031,2387.185 936.927,2284.744 			"/>
			<rect x="431.161" y="1414.767" style="fill:#29A9E1;" width="382.87" height="972.417"/>
		</g>
	</g>
</g>
<g style="opacity:0.9;">
	<path style="fill:#FFFFFF;" d="M495.071,719.542h243.641c0,0,18.903-65.111-18.903-67.211c-37.806-2.1-37.806-2.1-37.806-2.1
		s16.803-48.308-10.502-52.509c-27.305-4.201-58.81-18.903-63.011,23.104c0,0-46.208-21.003-58.81-6.301
		c-12.602,14.702-10.502,52.509-10.502,52.509S484.569,643.929,495.071,719.542z"/>
	<path style="fill:#FFFFFF;" d="M798.741,489.25h173.452c0,0,13.457-46.353-13.457-47.849s-26.915-1.495-26.915-1.495
		s11.962-34.391-7.476-37.382c-19.439-2.991-41.868-13.458-44.858,16.448c0,0-32.896-14.953-41.868-4.486
		c-8.972,10.467-7.476,37.382-7.476,37.382S791.265,435.42,798.741,489.25z"/>
	<path style="fill:#FFFFFF;" d="M2610.878,347.108h111.901c0,0,8.682-29.905-8.682-30.869c-17.364-0.965-17.364-0.965-17.364-0.965
		s7.717-22.187-4.823-24.117c-12.541-1.929-27.011-8.682-28.94,10.611c0,0-21.223-9.647-27.01-2.894
		c-5.788,6.753-4.823,24.117-4.823,24.117S2606.054,312.38,2610.878,347.108z"/>
	<path style="fill:#FFFFFF;" d="M2062.867,697.932h304.222c0,0,23.604-81.301-23.604-83.923
		c-47.207-2.623-47.207-2.623-47.207-2.623s20.981-60.32-13.113-65.565c-34.094-5.245-73.433-23.603-78.678,28.849
		c0,0-57.698-26.226-73.433-7.868c-15.736,18.358-13.113,65.565-13.113,65.565S2049.754,603.518,2062.867,697.932z"/>
	<path style="fill:#FFFFFF;" d="M1836.169,306.145h116.672c0,0,9.052-31.18-9.052-32.185c-18.104-1.006-18.104-1.006-18.104-1.006
		s8.046-23.133-5.029-25.145s-28.162-9.052-30.174,11.064c0,0-22.127-10.058-28.162-3.017c-6.035,7.041-5.029,25.145-5.029,25.145
		S1831.14,269.936,1836.169,306.145z"/>
	<path style="fill:#FFFFFF;" d="M216.707,390.181h116.672c0,0,9.052-31.18-9.052-32.185s-18.104-1.006-18.104-1.006
		s8.046-23.133-5.029-25.145c-13.075-2.012-28.162-9.052-30.174,11.064c0,0-22.127-10.058-28.162-3.017
		c-6.035,7.04-5.029,25.145-5.029,25.145S211.678,353.973,216.707,390.181z"/>
</g>
<g>
	<g>
		<path style="fill:#29A9E1;" d="M2745.113,1982.187c0,0,43.109,3.919,50.947,39.19
			C2796.06,2021.377,2754.91,2037.053,2745.113,1982.187z"/>
		<path style="fill:#29A9E1;" d="M2768.888,1932.303c0,0,38.845,19.099,33.53,54.837
			C2802.419,1987.141,2758.385,1987.038,2768.888,1932.303z"/>
		<path style="fill:#29A9E1;" d="M2850.925,1982.187c0,0-43.109,3.919-50.947,39.19
			C2799.979,2021.377,2841.128,2037.053,2850.925,1982.187z"/>
	</g>
	<g>
		<path style="fill:#29A9E1;" d="M2745.113,2027.255c0,0,43.109,3.919,50.947,39.19
			C2796.06,2066.445,2754.91,2082.121,2745.113,2027.255z"/>
		<path style="fill:#29A9E1;" d="M2850.925,2027.255c0,0-43.109,3.919-50.947,39.19
			C2799.979,2066.445,2841.128,2082.121,2850.925,2027.255z"/>
	</g>
	<g>
		<path style="fill:#29A9E1;" d="M2745.113,2078.202c0,0,43.109,3.919,50.947,39.19
			C2796.06,2117.392,2754.91,2133.068,2745.113,2078.202z"/>
		<path style="fill:#29A9E1;" d="M2850.925,2078.202c0,0-43.109,3.919-50.947,39.19
			C2799.979,2117.392,2841.128,2133.068,2850.925,2078.202z"/>
	</g>
	<g>
		<path style="fill:#29A9E1;" d="M2745.113,2115.433c0,0,43.109,3.919,50.947,39.19
			C2796.06,2154.622,2754.91,2170.298,2745.113,2115.433z"/>
		<path style="fill:#29A9E1;" d="M2850.925,2115.433c0,0-43.109,3.919-50.947,39.19
			C2799.979,2154.622,2841.128,2170.298,2850.925,2115.433z"/>
	</g>
	
		<rect x="2795.57" y="1978.758" transform="matrix(-1 -1.224647e-16 1.224647e-16 -1 5597.5078 4145.1377)" style="fill:#29A9E1;" width="6.368" height="187.621"/>
</g>
<g>
	<g>
		<path style="fill:#29A9E1;" d="M294.54,1652.86c0,0,37.903,3.446,44.795,34.458C339.334,1687.318,303.154,1701.101,294.54,1652.86
			z"/>
		<path style="fill:#29A9E1;" d="M315.444,1609c0,0,34.154,16.793,29.481,48.216C344.925,1657.216,306.209,1657.125,315.444,1609z"
			/>
		<path style="fill:#29A9E1;" d="M387.575,1652.86c0,0-37.903,3.446-44.795,34.458C342.78,1687.318,378.96,1701.101,387.575,1652.86
			z"/>
	</g>
	<g>
		<path style="fill:#29A9E1;" d="M294.54,1692.486c0,0,37.903,3.446,44.795,34.458
			C339.334,1726.944,303.154,1740.727,294.54,1692.486z"/>
		<path style="fill:#29A9E1;" d="M387.575,1692.486c0,0-37.903,3.446-44.795,34.458
			C342.78,1726.944,378.96,1740.727,387.575,1692.486z"/>
	</g>
	<g>
		<path style="fill:#29A9E1;" d="M294.54,1737.281c0,0,37.903,3.446,44.795,34.457
			C339.334,1771.739,303.154,1785.522,294.54,1737.281z"/>
		<path style="fill:#29A9E1;" d="M387.575,1737.281c0,0-37.903,3.446-44.795,34.457
			C342.78,1771.739,378.96,1785.522,387.575,1737.281z"/>
	</g>
	<g>
		<path style="fill:#29A9E1;" d="M294.54,1770.016c0,0,37.903,3.446,44.795,34.458
			C339.334,1804.473,303.154,1818.256,294.54,1770.016z"/>
		<path style="fill:#29A9E1;" d="M387.575,1770.016c0,0-37.903,3.446-44.795,34.458
			C342.78,1804.473,378.96,1818.256,387.575,1770.016z"/>
	</g>
	
		<rect x="338.904" y="1649.845" transform="matrix(-1 -1.224647e-16 1.224647e-16 -1 683.4064 3464.656)" style="fill:#29A9E1;" width="5.599" height="164.965"/>
</g>
<g>
	<g>
		<path style="fill:#29A9E1;" d="M2786.016,1750.197c0,0,25.231,2.294,29.819,22.937
			C2815.834,1773.134,2791.75,1782.309,2786.016,1750.197z"/>
		<path style="fill:#29A9E1;" d="M2799.931,1721c0,0,22.736,11.179,19.625,32.096
			C2819.556,1753.096,2793.784,1753.036,2799.931,1721z"/>
		<path style="fill:#29A9E1;" d="M2847.947,1750.197c0,0-25.231,2.294-29.819,22.937
			C2818.128,1773.134,2842.212,1782.309,2847.947,1750.197z"/>
	</g>
	<g>
		<path style="fill:#29A9E1;" d="M2786.016,1776.575c0,0,25.231,2.294,29.819,22.937
			C2815.834,1799.512,2791.75,1808.687,2786.016,1776.575z"/>
		<path style="fill:#29A9E1;" d="M2847.947,1776.575c0,0-25.231,2.294-29.819,22.937
			C2818.128,1799.512,2842.212,1808.687,2847.947,1776.575z"/>
	</g>
	<g>
		<path style="fill:#29A9E1;" d="M2786.016,1806.393c0,0,25.231,2.294,29.819,22.937
			C2815.834,1829.331,2791.75,1838.505,2786.016,1806.393z"/>
		<path style="fill:#29A9E1;" d="M2847.947,1806.393c0,0-25.231,2.294-29.819,22.937
			C2818.128,1829.331,2842.212,1838.505,2847.947,1806.393z"/>
	</g>
	<g>
		<path style="fill:#29A9E1;" d="M2786.016,1828.184c0,0,25.231,2.294,29.819,22.937
			C2815.834,1851.121,2791.75,1860.296,2786.016,1828.184z"/>
		<path style="fill:#29A9E1;" d="M2847.947,1828.184c0,0-25.231,2.294-29.819,22.937
			C2818.128,1851.121,2842.212,1860.296,2847.947,1828.184z"/>
	</g>
	
		<rect x="2815.548" y="1748.19" transform="matrix(-1 -1.224647e-16 1.224647e-16 -1 5634.8228 3606.1919)" style="fill:#29A9E1;" width="3.727" height="109.813"/>
</g>
<g>
	<g>
		<path style="fill:#29A9E1;" d="M2543.11,2436.49c0,0,87.54,7.958,103.456,79.582
			C2646.566,2516.071,2563.006,2547.904,2543.11,2436.49z"/>
		<path style="fill:#29A9E1;" d="M2591.391,2335.191c0,0,78.882,38.784,68.089,111.357
			C2659.479,2446.548,2570.061,2446.34,2591.391,2335.191z"/>
		<path style="fill:#29A9E1;" d="M2757.98,2436.49c0,0-87.54,7.958-103.456,79.582
			C2654.524,2516.071,2738.085,2547.904,2757.98,2436.49z"/>
	</g>
	<g>
		<path style="fill:#29A9E1;" d="M2543.11,2528.008c0,0,87.54,7.958,103.456,79.581
			C2646.566,2607.59,2563.006,2639.422,2543.11,2528.008z"/>
		<path style="fill:#29A9E1;" d="M2757.98,2528.008c0,0-87.54,7.958-103.456,79.581
			C2654.524,2607.59,2738.085,2639.422,2757.98,2528.008z"/>
	</g>
	<g>
		<path style="fill:#29A9E1;" d="M2543.11,2631.464c0,0,87.54,7.958,103.456,79.582
			C2646.566,2711.046,2563.006,2742.878,2543.11,2631.464z"/>
		<path style="fill:#29A9E1;" d="M2757.98,2631.464c0,0-87.54,7.958-103.456,79.582
			C2654.524,2711.046,2738.085,2742.878,2757.98,2631.464z"/>
	</g>
	<g>
		<path style="fill:#29A9E1;" d="M2543.11,2707.067c0,0,87.54,7.958,103.456,79.582
			C2646.566,2786.648,2563.006,2818.481,2543.11,2707.067z"/>
		<path style="fill:#29A9E1;" d="M2757.98,2707.067c0,0-87.54,7.958-103.456,79.582
			C2654.524,2786.648,2738.085,2818.481,2757.98,2707.067z"/>
	</g>
	
		<rect x="2645.572" y="2429.526" transform="matrix(-1 -1.224647e-16 1.224647e-16 -1 5304.0752 5240.0488)" style="fill:#29A9E1;" width="12.932" height="380.996"/>
</g>
<g>
	<g>
		<path style="fill:#29A9E1;" d="M90.4,2267.511c0,0,73.632,6.694,87.019,66.938C177.419,2334.449,107.135,2361.224,90.4,2267.511z"
			/>
		<path style="fill:#29A9E1;" d="M131.01,2182.307c0,0,66.349,32.622,57.271,93.664
			C188.281,2275.972,113.069,2275.797,131.01,2182.307z"/>
		<path style="fill:#29A9E1;" d="M271.132,2267.511c0,0-73.631,6.694-87.019,66.938
			C184.113,2334.449,254.398,2361.224,271.132,2267.511z"/>
	</g>
	<g>
		<path style="fill:#29A9E1;" d="M90.4,2344.49c0,0,73.632,6.694,87.019,66.938C177.419,2411.427,107.135,2438.203,90.4,2344.49z"/>
		<path style="fill:#29A9E1;" d="M271.132,2344.49c0,0-73.631,6.694-87.019,66.938
			C184.113,2411.427,254.398,2438.203,271.132,2344.49z"/>
	</g>
	<g>
		<path style="fill:#29A9E1;" d="M90.4,2431.509c0,0,73.632,6.694,87.019,66.938C177.419,2498.447,107.135,2525.222,90.4,2431.509z"
			/>
		<path style="fill:#29A9E1;" d="M271.132,2431.509c0,0-73.631,6.694-87.019,66.938
			C184.113,2498.447,254.398,2525.222,271.132,2431.509z"/>
	</g>
	<g>
		<path style="fill:#29A9E1;" d="M90.4,2495.1c0,0,73.632,6.694,87.019,66.938C177.419,2562.037,107.135,2588.813,90.4,2495.1z"/>
		<path style="fill:#29A9E1;" d="M271.132,2495.1c0,0-73.631,6.694-87.019,66.938C184.113,2562.037,254.398,2588.813,271.132,2495.1
			z"/>
	</g>
	
		<rect x="176.583" y="2261.654" transform="matrix(-1 -1.224647e-16 1.224647e-16 -1 364.0428 4843.7729)" style="fill:#29A9E1;" width="10.877" height="320.464"/>
</g>
<g>
	<path style="fill:#3564AE;" d="M2502.562,2157.194H1303.103c-58.465,0-105.861-47.396-105.861-105.861V288.668
		c0-58.465,47.396-105.861,105.861-105.861h1199.459c58.465,0,105.861,47.395,105.861,105.861v1762.665
		C2608.423,2109.799,2561.027,2157.194,2502.562,2157.194z"/>
	<rect x="1294.47" y="227.109" style="fill:#F1F1F2;" width="1216.725" height="1866.808"/>
	<rect x="1535.799" y="113" style="fill:#D0D2D3;" width="734.067" height="177.386"/>
	<g>
		<circle style="fill:none;stroke:#26A9E0;stroke-width:8;stroke-miterlimit:10;" cx="1497.83" cy="604.967" r="104.415"/>
		<g>
			<path style="fill:#26A9E0;" d="M2399.591,550.635h-753.046c-6.962,0-12.659-5.697-12.659-12.659v-25.308
				c0-6.962,5.697-12.659,12.659-12.659h753.046c6.962,0,12.659,5.696,12.659,12.659v25.308
				C2412.25,544.938,2406.553,550.635,2399.591,550.635z"/>
			<path style="fill:#26A9E0;" d="M2399.591,630.807h-753.046c-6.962,0-12.659-5.696-12.659-12.659v-25.308
				c0-6.962,5.697-12.659,12.659-12.659h753.046c6.962,0,12.659,5.697,12.659,12.659v25.308
				C2412.25,625.111,2406.553,630.807,2399.591,630.807z"/>
			<path style="fill:#26A9E0;" d="M2399.591,709.925h-753.046c-6.962,0-12.659-5.697-12.659-12.659v-25.308
				c0-6.962,5.697-12.659,12.659-12.659h753.046c6.962,0,12.659,5.696,12.659,12.659v25.308
				C2412.25,704.229,2406.553,709.925,2399.591,709.925z"/>
		</g>
		<path style="fill:#29B473;" d="M1395.597,527.162h75.953l25.318,59.075c0,0,139.247-151.906,202.542-151.906
			c0,0-156.126,151.906-156.126,227.859h-97.051L1395.597,527.162z"/>
	</g>
	<g>
		
			<ellipse transform="matrix(0.7071 -0.7071 0.7071 0.7071 -197.9326 1322.8292)" style="fill:none;stroke:#26A9E0;stroke-width:8;stroke-miterlimit:10;" cx="1497.83" cy="900.34" rx="104.415" ry="104.415"/>
		<g>
			<path style="fill:#26A9E0;" d="M2399.591,846.008h-753.046c-6.962,0-12.659-5.697-12.659-12.659v-25.308
				c0-6.962,5.697-12.659,12.659-12.659h753.046c6.962,0,12.659,5.696,12.659,12.659v25.308
				C2412.25,840.311,2406.553,846.008,2399.591,846.008z"/>
			<path style="fill:#26A9E0;" d="M2399.591,926.18h-753.046c-6.962,0-12.659-5.696-12.659-12.659v-25.308
				c0-6.962,5.697-12.659,12.659-12.659h753.046c6.962,0,12.659,5.697,12.659,12.659v25.308
				C2412.25,920.484,2406.553,926.18,2399.591,926.18z"/>
			<path style="fill:#26A9E0;" d="M2399.591,1005.298h-753.046c-6.962,0-12.659-5.696-12.659-12.659v-25.308
				c0-6.962,5.697-12.659,12.659-12.659h753.046c6.962,0,12.659,5.697,12.659,12.659v25.308
				C2412.25,999.602,2406.553,1005.298,2399.591,1005.298z"/>
		</g>
		<path style="fill:#29B473;" d="M1395.597,822.535h75.953l25.318,59.075c0,0,139.247-151.906,202.542-151.906
			c0,0-156.126,151.906-156.126,227.859h-97.051L1395.597,822.535z"/>
	</g>
	<g>
		<circle style="fill:none;stroke:#26A9E0;stroke-width:8;stroke-miterlimit:10;" cx="1497.83" cy="1199.933" r="104.415"/>
		<g>
			<path style="fill:#26A9E0;" d="M2399.591,1145.601h-753.046c-6.962,0-12.659-5.697-12.659-12.659v-25.308
				c0-6.962,5.697-12.659,12.659-12.659h753.046c6.962,0,12.659,5.697,12.659,12.659v25.308
				C2412.25,1139.904,2406.553,1145.601,2399.591,1145.601z"/>
			<path style="fill:#26A9E0;" d="M2399.591,1225.774h-753.046c-6.962,0-12.659-5.697-12.659-12.659v-25.308
				c0-6.962,5.697-12.659,12.659-12.659h753.046c6.962,0,12.659,5.697,12.659,12.659v25.308
				C2412.25,1220.077,2406.553,1225.774,2399.591,1225.774z"/>
			<path style="fill:#26A9E0;" d="M2399.591,1304.891h-753.046c-6.962,0-12.659-5.696-12.659-12.659v-25.308
				c0-6.962,5.697-12.659,12.659-12.659h753.046c6.962,0,12.659,5.696,12.659,12.659v25.308
				C2412.25,1299.195,2406.553,1304.891,2399.591,1304.891z"/>
		</g>
		<path style="fill:#29B473;" d="M1395.597,1122.128h75.953l25.318,59.075c0,0,139.247-151.906,202.542-151.906
			c0,0-156.126,151.906-156.126,227.859h-97.051L1395.597,1122.128z"/>
	</g>
	<g>
		<circle style="fill:none;stroke:#26A9E0;stroke-width:8;stroke-miterlimit:10;" cx="1497.83" cy="1503.746" r="104.415"/>
		<g>
			<path style="fill:#26A9E0;" d="M2399.591,1449.413h-753.046c-6.962,0-12.659-5.697-12.659-12.659v-25.307
				c0-6.962,5.697-12.659,12.659-12.659h753.046c6.962,0,12.659,5.697,12.659,12.659v25.307
				C2412.25,1443.717,2406.553,1449.413,2399.591,1449.413z"/>
			<path style="fill:#26A9E0;" d="M2399.591,1529.586h-753.046c-6.962,0-12.659-5.696-12.659-12.659v-25.308
				c0-6.962,5.697-12.659,12.659-12.659h753.046c6.962,0,12.659,5.696,12.659,12.659v25.308
				C2412.25,1523.89,2406.553,1529.586,2399.591,1529.586z"/>
			<path style="fill:#26A9E0;" d="M2399.591,1608.704h-753.046c-6.962,0-12.659-5.696-12.659-12.659v-25.307
				c0-6.962,5.697-12.659,12.659-12.659h753.046c6.962,0,12.659,5.697,12.659,12.659v25.307
				C2412.25,1603.007,2406.553,1608.704,2399.591,1608.704z"/>
		</g>
		<path style="fill:#29B473;" d="M1395.597,1425.94h75.953l25.318,59.075c0,0,139.247-151.906,202.542-151.906
			c0,0-156.126,151.906-156.126,227.859h-97.051L1395.597,1425.94z"/>
	</g>
	<g>
		<circle style="fill:none;stroke:#26A9E0;stroke-width:8;stroke-miterlimit:10;" cx="1497.83" cy="1807.558" r="104.415"/>
		<g>
			<path style="fill:#26A9E0;" d="M2399.591,1753.226h-753.046c-6.962,0-12.659-5.697-12.659-12.659v-25.308
				c0-6.962,5.697-12.659,12.659-12.659h753.046c6.962,0,12.659,5.696,12.659,12.659v25.308
				C2412.25,1747.529,2406.553,1753.226,2399.591,1753.226z"/>
			<path style="fill:#26A9E0;" d="M2399.591,1833.399h-753.046c-6.962,0-12.659-5.696-12.659-12.659v-25.307
				c0-6.962,5.697-12.659,12.659-12.659h753.046c6.962,0,12.659,5.697,12.659,12.659v25.307
				C2412.25,1827.702,2406.553,1833.399,2399.591,1833.399z"/>
			<path style="fill:#26A9E0;" d="M2399.591,1912.516h-753.046c-6.962,0-12.659-5.697-12.659-12.659v-25.307
				c0-6.962,5.697-12.659,12.659-12.659h753.046c6.962,0,12.659,5.696,12.659,12.659v25.307
				C2412.25,1906.82,2406.553,1912.516,2399.591,1912.516z"/>
		</g>
		<path style="fill:#29B473;" d="M1395.597,1729.753h75.953l25.318,59.075c0,0,139.247-151.906,202.542-151.906
			c0,0-156.126,151.906-156.126,227.859h-97.051L1395.597,1729.753z"/>
	</g>
</g>
<g>
	<path style="fill:#4C2421;" d="M1748.61,2476.186c0,0,145.323-15.008,176.176-51.016c0,0,50.063-19.958,61.788,10.562
		c11.725,30.52-5.739,64.283-21.789,83.493c-16.05,19.21-125.822,54.135-125.822,54.135l-14.553-1.414l8.316,13.472l-33.015,16.548
		l-91.392-65.615L1748.61,2476.186z"/>
	<g>
		<path style="fill:#3F1D1B;" d="M1766.335,2481.136c12.132-5.582,21.857-15.156,32.851-22.559
			c5.552-3.738,11.384-7.171,17.595-9.699c5.278-2.148,13.684-5.592,19.425-3.981c6.898,1.935,1.453,5.883-1.054,8.263
			c-2.153,2.044-4.377,4.016-6.691,5.878c-5.383,4.331-11.313,8.151-17.764,10.687c-6.058,2.382-12.268,3.251-18.746,3.419
			c-6.49,0.168-12.811,0.203-18.924,2.656c-1.251,0.502-1.589,2.532,0,2.893c8.327,1.893,16.166,5.253,23.182,10.144
			c3.64,2.538,7.009,5.457,10.054,8.685c1.712,1.814,11.047,10.891,4.512,11.918c-1.506,0.237-4.424-1.48-5.817-2.024
			c-2.479-0.969-4.922-2.028-7.326-3.171c-4.033-1.919-7.956-4.069-11.745-6.435c-7.967-4.975-15.214-10.919-21.785-17.619
			c-1.354-1.381-3.475,0.741-2.121,2.121c8.51,8.677,18.201,16.103,28.91,21.871c5.251,2.829,10.759,5.362,16.408,7.298
			c2.703,0.926,6.969,2.2,9.15-0.543c2.404-3.023-1.214-7.062-2.948-9.41c-3.087-4.181-6.664-8.004-10.644-11.346
			c-8.415-7.065-18.327-11.948-29.032-14.381c0,0.964,0,1.928,0,2.893c8.564-3.436,17.688-1.864,26.614-3.145
			c6.546-0.939,12.798-3.272,18.568-6.468c6.219-3.444,11.875-7.875,17.085-12.692c2.983-2.758,9.869-7.216,6.137-11.772
			c-3.418-4.173-10.435-2.976-14.945-2.071c-7.337,1.472-14.318,4.405-20.841,8.027c-14.641,8.129-26.394,20.969-41.623,27.974
			C1763.069,2479.352,1764.591,2481.938,1766.335,2481.136L1766.335,2481.136z"/>
	</g>
	<path style="fill:#4C2421;" d="M1587.95,2260.618c0,0,95.64,70.737,133.96,66.015c0,0,41.064,15.475,31.364,40.266
		c-9.7,24.792-38.735,35.512-58.932,38.256c-20.197,2.744-105.388-36.501-105.388-36.501l-7.977-8.838l-2.393,12.667l-28.939-8.168
		l-18.952-89.626L1587.95,2260.618z"/>
	<g>
		<path style="fill:#3F1D1B;" d="M1595.75,2273.576c10.391,3.257,21.444,2.902,32.139,4.466c5.225,0.764,10.446,1.87,15.428,3.646
			c2.733,0.974,5.383,2.151,7.909,3.575c1.2,0.677,2.406,1.38,3.522,2.192c1.973,1.436,4.175,2.563,2.558,4.976
			c-2.133,3.183-11.237,1.552-14.852,1.179c-5.831-0.603-11.711-1.951-16.987-4.569c-8.378-4.156-13.936-12.275-22.774-15.61
			c-1.202-0.454-2.414,1.16-1.694,2.203c3.938,5.708,6.82,11.976,8.356,18.754c0.747,3.296,1.165,6.654,1.26,10.032
			c0.046,1.621,0.018,3.237-0.086,4.855c-0.043,0.809-0.112,1.615-0.205,2.42c0.58,2.586-0.066,3.413-1.938,2.482
			c-3.087-0.495-4.94-7.048-6.031-9.71c-1.365-3.33-2.536-6.743-3.514-10.207c-2.09-7.406-3.197-14.989-3.491-22.673
			c-0.074-1.924-3.074-1.934-3,0c0.396,10.349,2.245,20.582,5.813,30.321c1.644,4.487,3.47,9.452,6.1,13.458
			c1.172,1.786,3.02,4.077,5.456,3.66c5.887-1.007,3.991-15.638,3.539-19.449c-1.09-9.202-4.415-17.838-9.669-25.456
			c-0.565,0.735-1.129,1.469-1.694,2.204c6.099,2.302,10.326,7.222,15.38,11.102c4.759,3.653,10.212,6.149,16.017,7.625
			c5.905,1.501,12.06,1.998,18.137,1.957c2.969-0.02,9.308,0.983,10.331-2.955c2.47-9.509-17.062-15.347-23.207-16.942
			c-13.773-3.577-28.452-2.178-42.006-6.426C1594.701,2270.104,1593.911,2272.999,1595.75,2273.576L1595.75,2273.576z"/>
	</g>
	<path style="fill:#DF8867;" d="M1071.09,1402.581c0,0-40.007,83.998-46.032,106.99s-51.697,42.209-51.697,42.209
		s98.678,69.896,135.991,48.677c37.313-21.219,49.716-31.766,49.716-31.766s-29.224-3.878-33.56-20.512
		s-1.601-160.506-1.601-160.506L1071.09,1402.581z"/>
	<path style="fill:#282247;" d="M907.296,2134.883c0,0,52.181,65.264,63.006,114.011c6.602,29.729,5.233,34.271,75.008,66.007
		c25.179,11.453,297.03,27.003,297.03,27.003l387.039,222.022c0,0,69.007-33.003,48.005-108.011l-336.034-228.023l-228.023-75.008
		l225.022-48.005l42.004,204.021c0,0,15.001,33.003,75.007-6s36.004-57.006,36.004-57.006l-54.005-261.026
		c0,0-57.006-51.005-105.01-39.004c-48.005,12.001-224.424,104.772-224.424,104.772L907.296,2134.883z"/>
	<path style="fill:#181633;" d="M957.73,2128.311c3.806-3.78,7.714-7.384,11.708-10.843l-62.142,17.415
		c0,0,9.539,11.934,21.305,29.401C936.935,2151.489,946.628,2139.489,957.73,2128.311z"/>
	<path style="fill:#181633;" d="M1777.384,2455.915l-223.812-151.872c0.594-0.378,1.186-0.751,1.789-1.143
		c60.006-39.004,36.004-57.006,36.004-57.006l-54.005-261.026c0,0-9.202-8.23-23.32-17.3c3.124,20.579,2.396,41.158-2.212,61.736
		c-1.337,29.471-10.096,56.915-26.279,82.334c-2.208,3.165-4.273,6.411-6.235,9.713c-4.936,15.527-9.319,31.245-14.653,46.643
		c-2.183,6.302-4.559,12.524-7.105,18.688c-0.523,1.267-1.048,2.548-1.574,3.837l8.733,42.419
		c14.404,11.129,28.809,22.258,43.213,33.386c27.445,27.631,46.429,60.203,56.95,97.717l7.91,58.87
		c0.632,16.742-1.015,32.863-4.912,48.369l161.502,92.645C1729.379,2563.926,1798.385,2530.923,1777.384,2455.915z"/>
	<path style="fill:#282247;" d="M1203.643,1585.349l66.2,207.671l65.367,102.468c12.184,26.876,28.839,54.112,18.992,81.93
		c-8.833,24.954-26.059,44.388-59.626,22.304l-96.507-161.796c0,0-19.548-22.024-39.353-52.971l-35.249-97.328L1203.643,1585.349z"
		/>
	<g>
		<path style="fill:#262727;" d="M1211.532,2007.363c0,0,0,31.842-35.303,50.532c-35.303,18.69-87.22,29.073-114.217,22.844
			c-26.997-6.23-105.91-45.687-110.063-68.53l0.692,0.692L1211.532,2007.363z"/>
		
			<rect x="1035.015" y="2041.282" transform="matrix(-0.9747 -0.2234 0.2234 -0.9747 1595.7175 4302.5532)" style="fill:#212A4E;" width="12.46" height="39.457"/>
		
			<rect x="1153.385" y="2030.899" transform="matrix(-0.9124 0.4092 -0.4092 -0.9124 3056.8618 3447.1348)" style="fill:#212A4E;" width="12.46" height="39.457"/>
		
			<rect x="995.559" y="2026.745" transform="matrix(-0.9022 -0.4314 0.4314 -0.9022 1022.6865 4324.8936)" style="fill:#212A4E;" width="12.46" height="39.457"/>
		
			<rect x="1192.842" y="2012.208" transform="matrix(-0.733 0.6802 -0.6802 -0.733 3460.1404 2705.8149)" style="fill:#212A4E;" width="12.46" height="39.457"/>
		<path style="fill:#D9DDE9;" d="M1149.232,1536.651l-44.796,54.339l-99.279-63.39l-128.136,62.543
			c0,0,53.944,202.986,56.434,244.496c1.531,25.517,0.276,86.377-0.919,129.485c-0.805,29.055,17.295,55.333,44.785,64.775
			c34.57,11.874,81.312,24.892,114.051,22.226c26.9-2.191,55.98-8.856,79.457-15.381c28.234-7.848,48.564-32.446,50.899-61.658
			c6.299-78.807,16.917-234.963,7.206-289.845c-13.205-74.632-46.476-128.901-46.476-128.901L1149.232,1536.651z"/>
		<polygon style="fill:#BABABE;" points="1105.622,1590.645 1140.925,1576.108 1167.922,1590.645 1140.925,1549.111 		"/>
		<polygon style="fill:#D9DDE9;" points="1097.22,1596.255 1090.638,1561.015 1015.157,1489.081 982.429,1539.25 1051.701,1613.323 
					"/>
		<path style="fill:#D9DDE9;" d="M1129.544,1505.593l19.688,16.522c8.493,18.606,18.69,68.53,18.69,68.53l-24.92-31.15
			l-33.395,29.368C1109.607,1588.862,1142.428,1548.038,1129.544,1505.593z"/>
		<polygon style="fill:#BABABE;" points="1047.475,1594.798 1091.085,1561.571 1103.545,1590.645 1080.702,1582.338 		"/>
		<g>
			<path style="fill:#CDD0D7;" d="M1092.998,2089.174l42.51-4.617c3.936-0.427,6.807-3.998,6.38-7.934l-2.257-20.783
				c-0.427-3.936-3.998-6.807-7.934-6.379l-42.51,4.617c-3.936,0.427-6.807,3.998-6.38,7.934l2.257,20.783
				C1085.491,2086.731,1089.061,2089.602,1092.998,2089.174z"/>
			<path style="fill:#262727;" d="M1094.921,2085.583l37.937-4.121c3.355-0.365,5.802-3.408,5.438-6.763l-1.814-16.702
				c-0.365-3.355-3.408-5.802-6.763-5.438l-37.937,4.121c-3.355,0.365-5.802,3.408-5.438,6.763l1.814,16.702
				C1088.522,2083.5,1091.566,2085.948,1094.921,2085.583z"/>
		</g>
		<path style="fill:#C62026;" d="M1138.059,1565.506c0,0-25.876,11.416-46.425-4.566l-19.027,15.221l21.31,37.292l-9.133,111.877
			l43.381,66.213c0,0,20.549-45.664,20.549-50.231s-22.832-130.143-22.832-130.143l15.983-34.248L1138.059,1565.506z"/>
		<path style="fill:#362D55;" d="M977.473,1540.391c0,0,139.276,189.507,143.842,223.755c0,0,37.523-145.815,39.143-208.038
			c0.156-6.007-3.629-12.45-0.601-15.478c0.256-0.256,25.388,15.744,25.388,15.744s52.514,52.514,50.231,226.038
			c-1.727,131.241-1.416,232.191,22.855,256.462c21.002,21.002,54.005,33.003,54.005,33.003s-123.242,94.011-141.508-36.132
			c-22.362,71.106-124.955,127.651-159.108,132.53c-95.895,13.699-109.594-6.85-109.594-6.85l31.965-171.241
			c0,0-7.371-182.202-20.81-223.527c-13.439-41.325-57.079-154.108-27.138-187.451L977.473,1540.391z"/>
		<g>
			<path style="fill:#4E4575;" d="M1123.561,2059.1c24.791-132.973,18.409-207.054,9.073-228.063
				c-25.343-57.02-141.147-124.373-158.222-134.066l60.912-24.135l-71.605-29.346l-6.798-92.907l-2.277,0.167l6.901,94.316
				l67.671,27.734l-60.123,23.822l2.119,1.17c1.321,0.728,132.405,73.583,159.333,134.173c9.259,20.83,15.49,94.125-9.231,226.716
				L1123.561,2059.1z"/>
		</g>
		<g>
			<path style="fill:#4E4575;" d="M1132.708,1831.729c11.749-57.571,29.659-96.558,42.615-119.126
				c14.034-24.448,25.436-35.426,25.55-35.534l1.466-1.396l-49.444-13.485l45.947-24.999l-25.303-88.674l-2.196,0.627l24.801,86.915
				l-49.33,26.841l51.089,13.933c-3.477,3.667-13.017,14.548-24.494,34.518c-13.062,22.727-31.114,61.982-42.938,119.923
				L1132.708,1831.729z"/>
		</g>
	</g>
	<path style="fill:#39C2DD;" d="M1109.288,2030.464l21.672-236.18c0.744-8.106,7.875-14.102,15.988-13.443l184.089,14.948
		c9.06,0.736,15.338,9.365,13.25,18.212l-53.794,227.871L1109.288,2030.464z"/>
	<path style="opacity:0.25;fill:#4087C7;" d="M1230.047,1967.148c-12.74-6.529-25.481-13.059-38.221-19.589
		c-24.298-16.786-42.974-38.432-56.028-64.938l-10.121-30.769l-16.39,178.61l181.206,11.407l15.579-65.99
		C1280.243,1978.885,1254.901,1975.978,1230.047,1967.148z"/>
	<path style="fill:#EE9E78;" d="M1067.146,1910.255l25.259,6.873c0,0,16.029-17.899,28.542-24.627
		c12.513-6.728,73.349,1.861,82.886,8.345c9.537,6.484,10.574,15.238-3.065,17.752c0,0,6.969,16.34-5.053,20.045
		c0,0,16.856,9.54-2.01,16.836c0,0,14.957,7.294-9.981,16.212c0,0-37.66-4.618-53.446-0.403
		c-15.786,4.216-23.367,14.775-23.367,14.775s-21.178,8.409-26.228,4.114c-5.05-4.296-14.41-19.858-14.41-19.858l-19.637-15.076
		L1067.146,1910.255z"/>
	<path style="fill:#3E3660;" d="M881.245,1587.462c0,0-50.441,216.212-30.043,251.081s12.031,52.63,97.871,100.004
		c81.706,45.093,101.792,39.946,101.792,39.946l27.77-68.392c0,0-122.502-63.577-136.08-80.825
		c-13.578-17.247-15.309-35.852-11.953-55.44c3.357-19.588,21.518-74.391,21.518-74.391S975.966,1639.02,881.245,1587.462z"/>
	<path style="fill:#EE9E78;" d="M1268.237,1406.046c0,0-27.817,60.952-41.255,80.557c-13.438,19.604-72.333,36.644-86.2,38.443
		s-30.219-8.301-30.219-8.301s-41.437-58.55-43.835-77.04c-2.398-18.49,9.067-89.542,9.067-89.542s16.343-91.426,39.626-107.607
		c23.283-16.181,84.317-45.719,132.685-13.45c48.369,32.269,62.708,44.98,50.941,88.339
		C1293.868,1336.53,1268.237,1406.046,1268.237,1406.046z"/>
	<polygon style="fill:#CBCBCA;" points="1292.697,1815.035 1190.398,1807.557 1196.871,1770.309 1299.169,1777.786 	"/>
	<path style="fill:#31141E;" d="M1275.173,1377.676l-41.889-14.566c0,0-2.758-3.642,1.3-7.597
		c4.058-3.955,34.031,2.443,38.766,8.114C1278.086,1369.299,1278.399,1376.115,1275.173,1377.676z"/>
	<path style="fill:#31141E;" d="M1139.935,1332.373l47.409,16.486c0,0,5.006-1.296,4.181-7.656
		c-0.825-6.36-31.921-21.729-40.106-20.02S1138.168,1328.722,1139.935,1332.373z"/>
	
		<ellipse transform="matrix(0.3284 -0.9445 0.9445 0.3284 -496.4255 2113.5222)" style="fill:#2B203D;" cx="1238.092" cy="1405.865" rx="14.592" ry="10.423"/>
	<path style="fill:#2B203D;" d="M1139.644,1371.631c-2.647,7.612-0.385,15.315,5.052,17.206c5.437,1.891,11.99-2.747,14.638-10.359
		c2.647-7.612,0.385-15.315-5.052-17.206C1148.845,1359.381,1142.291,1364.019,1139.644,1371.631z"/>
	<g>
		<path style="fill:#EF7A6D;" d="M1179.297,1431.398c5.511,0.939,12.271,1.574,15.658-1.878c2.661-2.711,2.681-7.296,0.061-14.017
			c-4.555-11.684,18.021-54.852,27.105-70.499l-3.704-1.88c-0.082,0.143-8.374,14.462-15.841,30.426
			c-10.17,21.74-14.015,36.124-11.431,42.754c2.094,5.373,2.286,8.982,0.571,10.73c-1.674,1.707-5.508,1.98-12.067,0.863
			L1179.297,1431.398z"/>
	</g>
	<path style="fill:#C0272D;" d="M1189.244,1463.51l-69.955-32.553c0,0-8.48-1.399-2.799,16.961
		c5.682,18.36,47.512,31.924,47.512,31.924S1184.532,1479.642,1189.244,1463.51z"/>
	<path style="fill:#FFFFFF;" d="M1189.723,1462.402l-70.434-31.445c0,0-8.001-2.507,1.037,8.101
		c9.037,10.607,49.909,26.386,49.909,26.386S1188.847,1469.675,1189.723,1462.402z"/>
	<path style="fill:#31141E;" d="M1091.529,1325.636c0,0,19.467-47.073,35.763-49.022l22.155-47.157c0,0,48.108,54.182,79.017,73.076
		c30.91,18.894,65.96,33.55,65.96,33.55l-19.837,55.263l34.384-56.015c0,0,28.931-29.906,31.588-44.549
		c2.657-14.643,16.974-65.391-72.006-99.931c-88.98-34.539-146.873-57.92-180.823-28.515c-33.95,29.405-56.888,67.961-56.179,87.711
		c0.709,19.75,19.988,107.253,23.207,152.599c3.219,45.346,5.377,26.742,5.377,26.742L1091.529,1325.636z"/>
	<path style="fill:#EE9E78;" d="M1087.907,1329.857c0,0,0.298-23.07-20.846-19.388c-21.144,3.683-27.476,34.586-21.055,47.854
		c6.421,13.268,17.295,39.12,21.918,38.52s10.615-5.137,10.615-5.137L1087.907,1329.857z"/>
	<path style="fill:#EE9E78;" d="M1348.678,1935.253c0,0-5.048-19.105-11.703-27.423c-6.656-8.319-54.489-11.163-63.912-6.932
		c-9.424,4.231-13.464,12.019-4.404,16.698c0,0-11.233,13.655-3.806,19.135c0,0-15.936,5.73-4.834,15.68
		c0,0-13.702,4.019,1.245,16.509c0,0,29.349,2.397,39.346,9.002c9.997,6.605,11.6,17.547,11.6,17.547s12.38,11.368,17.693,8.342
		c1.55-0.883,3.699-4.003,5.966-7.98c7.75-13.596,11.848-28.968,12.324-44.611L1348.678,1935.253z"/>
</g>
</svg>
